HIERARCHY
ROOT joint_Root
{
	OFFSET 0.0 0.0 0.0
	CHANNELS 6 Xposition Yposition Zposition Zrotation Xrotation Yrotation 
	JOINT Hips
	{
		OFFSET -0.726466 93.3139 -2.00062
		CHANNELS 6 Xposition Yposition Zposition Zrotation Xrotation Yrotation 
		JOINT Spine
		{
			OFFSET 15.7357 0.0 0.0
			CHANNELS 6 Xposition Yposition Zposition Zrotation Xrotation Yrotation 
			JOINT Chest
			{
				OFFSET 8.98455 -0.406207 0.0
				CHANNELS 6 Xposition Yposition Zposition Zrotation Xrotation Yrotation 
				JOINT Neck
				{
					OFFSET 16.3773 0.0 0.0
					CHANNELS 6 Xposition Yposition Zposition Zrotation Xrotation Yrotation 
					JOINT Head
					{
						OFFSET 6.45672 0.0 0.0
						CHANNELS 6 Xposition Yposition Zposition Zrotation Xrotation Yrotation 
						End Site
						{
							OFFSET 0.0 0.0 0.0
						}
					}
				}
				JOINT Shoulder_L
				{
					OFFSET 12.9942 -0.242716 4.98039
					CHANNELS 6 Xposition Yposition Zposition Zrotation Xrotation Yrotation 
					JOINT UpperArm_L
					{
						OFFSET 5.34809 0.0 0.0
						CHANNELS 6 Xposition Yposition Zposition Zrotation Xrotation Yrotation 
						JOINT LowerArm_L
						{
							OFFSET 24.3286 1.87007e-05 0.0
							CHANNELS 6 Xposition Yposition Zposition Zrotation Xrotation Yrotation 
							JOINT Hand_L
							{
								OFFSET 22.2916 0.0 0.0
								CHANNELS 6 Xposition Yposition Zposition Zrotation Xrotation Yrotation 
								End Site
								{
									OFFSET 0.0 0.0 0.0
								}
							}
						}
					}
				}
				JOINT Shoulder_R
				{
					OFFSET 12.9945 -0.242716 -4.98039
					CHANNELS 6 Xposition Yposition Zposition Zrotation Xrotation Yrotation 
					JOINT UpperArm_R
					{
						OFFSET -5.34813 0.0 0.0
						CHANNELS 6 Xposition Yposition Zposition Zrotation Xrotation Yrotation 
						JOINT LowerArm_R
						{
							OFFSET -24.3289 0.000322201 0.0
							CHANNELS 6 Xposition Yposition Zposition Zrotation Xrotation Yrotation 
							JOINT Hand_R
							{
								OFFSET -22.2915 -0.000108084 0.0
								CHANNELS 6 Xposition Yposition Zposition Zrotation Xrotation Yrotation 
								End Site
								{
									OFFSET 0.0 0.0 0.0
								}
							}
						}
					}
				}
			}
		}
		JOINT UpperLeg_L
		{
			OFFSET -2.19248 -6.46944 0.0
			CHANNELS 6 Xposition Yposition Zposition Zrotation Xrotation Yrotation 
			JOINT LowerLeg_L
			{
				OFFSET 39.0811 0.0 -1.23785e-05
				CHANNELS 6 Xposition Yposition Zposition Zrotation Xrotation Yrotation 
				JOINT Foot_L
				{
					OFFSET 40.9854 0.0 -1.26872e-05
					CHANNELS 6 Xposition Yposition Zposition Zrotation Xrotation Yrotation 
					JOINT Toes_L
					{
						OFFSET 11.7543 0.0 0.0
						CHANNELS 6 Xposition Yposition Zposition Zrotation Xrotation Yrotation 
						End Site
						{
							OFFSET 0.0 0.0 0.0
						}
					}
				}
			}
		}
		JOINT UpperLeg_R
		{
			OFFSET -2.19251 6.46944 0.0
			CHANNELS 6 Xposition Yposition Zposition Zrotation Xrotation Yrotation 
			JOINT LowerLeg_R
			{
				OFFSET -39.0811 -0.00228153 -0.0401928
				CHANNELS 6 Xposition Yposition Zposition Zrotation Xrotation Yrotation 
				JOINT Foot_R
				{
					OFFSET -40.9854 0.0 0.0
					CHANNELS 6 Xposition Yposition Zposition Zrotation Xrotation Yrotation 
					JOINT Toes_R
					{
						OFFSET -11.7543 0.0 0.0
						CHANNELS 6 Xposition Yposition Zposition Zrotation Xrotation Yrotation 
						End Site
						{
							OFFSET 0.0 0.0 0.0
						}
					}
				}
			}
		}
	}
}
MOTION
Frames:	4
Frame Time:	0.0333333
0.000000 0.000000 0.000000 0.000000 0.000000 -0.000000 132.193000 87.249000 -151.873000 85.218800 7.899090 0.466754 15.735700 0.000005 -0.000001 71.385100 80.431200 -68.088600 8.984550 -0.406207 -0.000000 10.595000 -5.985560 7.149620 16.377300 -0.000001 -0.000001 4.652220 -1.800110 -0.685423 6.456720 -0.000001 -0.000000 -2.439370 2.678730 3.832160 12.994200 -0.242716 4.980390 -88.749900 -3.687240 -71.256100 5.348090 -0.000007 -0.000001 -52.143400 33.689400 -23.870700 24.328600 0.000019 0.000005 7.227210 4.305870 -59.376100 22.291600 -0.000001 0.000005 4.835710 5.580130 -10.218600 12.994500 -0.242716 -4.980390 87.617600 4.915910 -64.102900 -5.348130 -0.000001 -0.000004 -58.298000 30.680500 -0.970141 -24.328900 0.000322 -0.000009 3.125030 4.909180 -32.546600 -22.291500 -0.000108 -0.000004 -0.746707 5.534620 -7.999810 -2.192480 -6.469440 -0.000000 -165.905000 -1.186870 4.350420 39.081100 -0.000007 -0.000012 0.105605 -0.091636 49.050000 40.985400 -0.000006 -0.000013 -0.875478 -0.730634 -51.752600 11.754300 -0.000000 0.000003 -0.021122 -0.173439 -23.665100 -2.192510 6.469440 -0.000001 -171.348000 18.542700 148.400000 -39.081100 -0.002282 -0.040193 0.099598 -0.094648 45.506100 -40.985400 0.000008 0.000006 7.325750 -9.250490 -63.079100 -11.754300 -0.000006 -0.000006 -0.009367 -0.098843 -20.599600
0.000000 0.000000 0.000000 0.000000 0.000000 -0.000000 131.618000 87.986800 -148.329000 85.657800 7.026200 0.935313 15.735700 0.000005 -0.000001 75.181000 80.728500 -72.170300 8.984550 -0.406207 -0.000000 10.315300 -4.644500 6.439890 16.377300 -0.000001 -0.000001 4.540580 -2.003380 -0.565502 6.456720 -0.000001 -0.000000 -2.240470 1.676640 3.645390 12.994200 -0.242716 4.980390 -88.736600 -3.644490 -70.865900 5.348090 -0.000007 -0.000001 -55.297100 35.702000 -20.178400 24.328600 0.000019 0.000005 8.335020 5.425820 -57.163600 22.291600 -0.000001 0.000005 4.204250 5.579190 -10.168900 12.994500 -0.242716 -4.980390 87.735000 4.800230 -64.702700 -5.348130 -0.000001 -0.000004 -58.568600 31.626700 -3.338920 -24.328900 0.000322 -0.000009 2.509010 3.773150 -33.676100 -22.291500 -0.000108 -0.000004 -0.529375 5.531980 -7.882950 -2.192480 -6.469440 -0.000000 -166.929000 -1.758690 -0.466029 39.081100 -0.000007 -0.000012 0.132533 -0.085207 57.261200 40.985400 -0.000006 -0.000013 1.609380 -4.715350 -47.855500 11.754300 -0.000000 0.000003 -0.006014 -0.070967 -19.465000 -2.192510 6.469440 -0.000001 -172.090000 17.726400 152.436000 -39.081100 -0.002282 -0.040193 0.087694 -0.086373 44.347800 -40.985400 0.000008 0.000006 6.913470 -9.520340 -65.052400 -11.754300 -0.000006 -0.000006 -0.008717 -0.093786 -20.392900
0.000000 0.000000 0.000000 0.000000 0.000000 -0.000000 131.239000 88.832400 -145.060000 86.368200 6.129040 1.184460 15.735700 0.000005 -0.000001 79.147500 81.054600 -76.571900 8.984550 -0.406207 -0.000000 9.896690 -3.299870 5.434600 16.377300 -0.000001 -0.000001 4.432850 -2.230640 -0.481283 6.456720 -0.000001 -0.000000 -1.908950 0.534355 3.593740 12.994200 -0.242716 4.980390 -88.747600 -3.519350 -70.396000 5.348090 -0.000007 -0.000001 -58.305000 37.016500 -16.309900 24.328600 0.000019 0.000005 8.121260 5.850590 -54.458700 22.291600 -0.000001 0.000005 3.533700 5.582370 -10.340300 12.994500 -0.242716 -4.980390 87.772400 4.849560 -65.291600 -5.348130 -0.000001 -0.000004 -57.709200 32.905300 -6.372360 -24.328900 0.000322 -0.000009 1.632720 2.291490 -35.509900 -22.291500 -0.000108 -0.000004 -0.248298 5.537010 -8.107960 -2.192480 -6.469440 -0.000000 -168.378000 -3.127970 -5.209210 39.081100 -0.000007 -0.000012 0.119115 -0.059578 63.425200 40.985400 -0.000006 -0.000013 4.058040 -6.476160 -50.742500 11.754300 -0.000000 0.000003 -0.005988 -0.070737 -19.455700 -2.192510 6.469440 -0.000001 -173.130000 17.198500 156.511000 -39.081100 -0.002282 -0.040193 0.073741 -0.077717 42.199600 -40.985400 0.000008 0.000006 6.562660 -9.331830 -66.267500 -11.754300 -0.000006 -0.000006 -0.008387 -0.091163 -20.285700
0.000000 0.000000 0.000000 0.000000 0.000000 -0.000000 131.048000 89.708300 -142.028000 87.393500 4.862670 1.305020 15.735700 0.000005 -0.000001 83.410300 81.381700 -81.434600 8.984550 -0.406207 -0.000000 9.397370 -1.938760 4.107940 16.377300 -0.000001 -0.000001 4.547450 -2.309710 -0.459367 6.456720 -0.000001 -0.000000 -1.614630 -0.618119 3.452360 12.994200 -0.242716 4.980390 -88.739600 -3.395430 -69.620300 5.348090 -0.000007 -0.000001 -61.196500 37.603900 -12.363500 24.328600 0.000019 0.000005 7.169760 5.807740 -51.183600 22.291600 -0.000001 0.000005 3.335880 5.582410 -10.341500 12.994500 -0.242716 -4.980390 87.884500 4.742350 -65.925000 -5.348130 -0.000001 -0.000004 -56.134100 34.116900 -10.413700 -24.328900 0.000322 -0.000009 0.955083 1.272520 -36.929100 -22.291500 -0.000108 -0.000004 -0.116017 5.542300 -8.347440 -2.192480 -6.469440 -0.000000 -170.272000 -5.283930 -9.985280 39.081100 -0.000007 -0.000012 0.118782 -0.050748 66.863600 40.985400 -0.000006 -0.000013 4.782830 -6.491100 -52.212000 11.754300 -0.000000 0.000003 -0.005879 -0.069741 -19.415000 -2.192510 6.469440 -0.000001 -174.608000 17.183600 160.566000 -39.081100 -0.002282 -0.040193 0.062100 -0.071382 39.489200 -40.985400 0.000008 0.000006 6.506320 -8.098810 -67.114600 -11.754300 -0.000006 -0.000006 -0.007602 -0.084750 -20.023800
